<mxfile host="app.diagrams.net" modified="2023-03-06T12:31:55.333Z" agent="5.0 (X11; Linux x86_64) AppleWebKit/537.36 (KHTML, like Gecko) Chrome/110.0.0.0 Safari/537.36" etag="3t1IbNB3sNQT1wJtWL04" version="20.8.22" type="github">
  <diagram name="Página-1" id="qRX4IYPKH2Vp4G-w1d9a">
    <mxGraphModel dx="2184" dy="832" grid="1" gridSize="10" guides="1" tooltips="1" connect="1" arrows="1" fold="1" page="1" pageScale="1" pageWidth="827" pageHeight="1169" math="0" shadow="0">
      <root>
        <mxCell id="0" />
        <mxCell id="1" parent="0" />
        <mxCell id="Pkc0Q9jrOcTM5dbPZ3zt-2" style="edgeStyle=orthogonalEdgeStyle;rounded=0;orthogonalLoop=1;jettySize=auto;html=1;exitX=0.5;exitY=1;exitDx=0;exitDy=0;fontFamily=Times New Roman;fontSize=14;" edge="1" parent="1" source="Pkc0Q9jrOcTM5dbPZ3zt-1" target="Pkc0Q9jrOcTM5dbPZ3zt-3">
          <mxGeometry relative="1" as="geometry">
            <mxPoint x="399.66666666666674" y="159.9999999999999" as="targetPoint" />
          </mxGeometry>
        </mxCell>
        <mxCell id="Pkc0Q9jrOcTM5dbPZ3zt-1" value="&lt;font face=&quot;Times New Roman&quot; style=&quot;font-size: 14px;&quot;&gt;Inicio&lt;/font&gt;" style="ellipse;whiteSpace=wrap;html=1;" vertex="1" parent="1">
          <mxGeometry x="340" y="40" width="120" height="70" as="geometry" />
        </mxCell>
        <mxCell id="Pkc0Q9jrOcTM5dbPZ3zt-4" style="edgeStyle=orthogonalEdgeStyle;rounded=0;orthogonalLoop=1;jettySize=auto;html=1;fontFamily=Times New Roman;fontSize=14;" edge="1" parent="1" source="Pkc0Q9jrOcTM5dbPZ3zt-3">
          <mxGeometry relative="1" as="geometry">
            <mxPoint x="399.99666666666644" y="270.00222222222214" as="targetPoint" />
          </mxGeometry>
        </mxCell>
        <mxCell id="Pkc0Q9jrOcTM5dbPZ3zt-3" value="Inicializa sensores" style="rounded=0;whiteSpace=wrap;html=1;fontFamily=Times New Roman;fontSize=14;" vertex="1" parent="1">
          <mxGeometry x="339.9966666666667" y="159.9999999999999" width="120" height="60" as="geometry" />
        </mxCell>
        <mxCell id="Pkc0Q9jrOcTM5dbPZ3zt-10" value="" style="edgeStyle=orthogonalEdgeStyle;rounded=0;orthogonalLoop=1;jettySize=auto;html=1;fontFamily=Times New Roman;fontSize=14;" edge="1" parent="1" source="Pkc0Q9jrOcTM5dbPZ3zt-8">
          <mxGeometry relative="1" as="geometry">
            <mxPoint x="620.0000000000002" y="360" as="targetPoint" />
          </mxGeometry>
        </mxCell>
        <mxCell id="Pkc0Q9jrOcTM5dbPZ3zt-13" value="" style="edgeStyle=orthogonalEdgeStyle;rounded=0;orthogonalLoop=1;jettySize=auto;html=1;fontFamily=Times New Roman;fontSize=14;" edge="1" parent="1" source="Pkc0Q9jrOcTM5dbPZ3zt-8" target="Pkc0Q9jrOcTM5dbPZ3zt-12">
          <mxGeometry relative="1" as="geometry" />
        </mxCell>
        <mxCell id="Pkc0Q9jrOcTM5dbPZ3zt-8" value="Há rede salva" style="rhombus;whiteSpace=wrap;html=1;fontFamily=Times New Roman;fontSize=14;" vertex="1" parent="1">
          <mxGeometry x="320" y="270" width="160" height="80" as="geometry" />
        </mxCell>
        <mxCell id="Pkc0Q9jrOcTM5dbPZ3zt-14" style="edgeStyle=orthogonalEdgeStyle;rounded=0;orthogonalLoop=1;jettySize=auto;html=1;entryX=1;entryY=0.5;entryDx=0;entryDy=0;fontFamily=Times New Roman;fontSize=14;" edge="1" parent="1" source="Pkc0Q9jrOcTM5dbPZ3zt-11" target="Pkc0Q9jrOcTM5dbPZ3zt-12">
          <mxGeometry relative="1" as="geometry" />
        </mxCell>
        <mxCell id="Pkc0Q9jrOcTM5dbPZ3zt-20" value="" style="edgeStyle=orthogonalEdgeStyle;rounded=0;orthogonalLoop=1;jettySize=auto;html=1;fontFamily=Times New Roman;fontSize=14;" edge="1" parent="1" source="Pkc0Q9jrOcTM5dbPZ3zt-11" target="Pkc0Q9jrOcTM5dbPZ3zt-19">
          <mxGeometry relative="1" as="geometry" />
        </mxCell>
        <mxCell id="Pkc0Q9jrOcTM5dbPZ3zt-11" value="Conseguiu se conectar" style="rhombus;whiteSpace=wrap;html=1;fontFamily=Times New Roman;fontSize=14;" vertex="1" parent="1">
          <mxGeometry x="540" y="360" width="160" height="80" as="geometry" />
        </mxCell>
        <mxCell id="Pkc0Q9jrOcTM5dbPZ3zt-24" value="" style="edgeStyle=orthogonalEdgeStyle;rounded=0;orthogonalLoop=1;jettySize=auto;html=1;fontFamily=Times New Roman;fontSize=14;" edge="1" parent="1" source="Pkc0Q9jrOcTM5dbPZ3zt-12" target="Pkc0Q9jrOcTM5dbPZ3zt-23">
          <mxGeometry relative="1" as="geometry" />
        </mxCell>
        <mxCell id="Pkc0Q9jrOcTM5dbPZ3zt-12" value="Abre access point para configuração da rede" style="whiteSpace=wrap;html=1;fontSize=14;fontFamily=Times New Roman;" vertex="1" parent="1">
          <mxGeometry x="90" y="370" width="150" height="60" as="geometry" />
        </mxCell>
        <mxCell id="Pkc0Q9jrOcTM5dbPZ3zt-15" value="Sim" style="text;html=1;strokeColor=none;fillColor=none;align=center;verticalAlign=middle;whiteSpace=wrap;rounded=0;fontSize=14;fontFamily=Times New Roman;" vertex="1" parent="1">
          <mxGeometry x="510" y="280" width="60" height="30" as="geometry" />
        </mxCell>
        <mxCell id="Pkc0Q9jrOcTM5dbPZ3zt-16" value="Não" style="text;html=1;strokeColor=none;fillColor=none;align=center;verticalAlign=middle;whiteSpace=wrap;rounded=0;fontSize=14;fontFamily=Times New Roman;" vertex="1" parent="1">
          <mxGeometry x="460" y="370" width="60" height="30" as="geometry" />
        </mxCell>
        <mxCell id="Pkc0Q9jrOcTM5dbPZ3zt-17" value="Não" style="text;html=1;strokeColor=none;fillColor=none;align=center;verticalAlign=middle;whiteSpace=wrap;rounded=0;fontSize=14;fontFamily=Times New Roman;" vertex="1" parent="1">
          <mxGeometry x="230" y="280" width="60" height="30" as="geometry" />
        </mxCell>
        <mxCell id="Pkc0Q9jrOcTM5dbPZ3zt-21" style="edgeStyle=orthogonalEdgeStyle;rounded=0;orthogonalLoop=1;jettySize=auto;html=1;fontFamily=Times New Roman;fontSize=14;" edge="1" parent="1" source="Pkc0Q9jrOcTM5dbPZ3zt-19" target="Pkc0Q9jrOcTM5dbPZ3zt-22">
          <mxGeometry relative="1" as="geometry">
            <mxPoint x="870" y="630" as="targetPoint" />
          </mxGeometry>
        </mxCell>
        <mxCell id="Pkc0Q9jrOcTM5dbPZ3zt-19" value="Envia os dados para a nuvem" style="whiteSpace=wrap;html=1;fontSize=14;fontFamily=Times New Roman;" vertex="1" parent="1">
          <mxGeometry x="810" y="490" width="120" height="60" as="geometry" />
        </mxCell>
        <mxCell id="Pkc0Q9jrOcTM5dbPZ3zt-34" style="edgeStyle=orthogonalEdgeStyle;rounded=0;orthogonalLoop=1;jettySize=auto;html=1;fontFamily=Times New Roman;fontSize=14;" edge="1" parent="1" source="Pkc0Q9jrOcTM5dbPZ3zt-22" target="Pkc0Q9jrOcTM5dbPZ3zt-35">
          <mxGeometry relative="1" as="geometry">
            <mxPoint x="740" y="730" as="targetPoint" />
          </mxGeometry>
        </mxCell>
        <mxCell id="Pkc0Q9jrOcTM5dbPZ3zt-38" value="" style="edgeStyle=orthogonalEdgeStyle;rounded=0;orthogonalLoop=1;jettySize=auto;html=1;fontFamily=Times New Roman;fontSize=14;" edge="1" parent="1" source="Pkc0Q9jrOcTM5dbPZ3zt-22" target="Pkc0Q9jrOcTM5dbPZ3zt-37">
          <mxGeometry relative="1" as="geometry" />
        </mxCell>
        <mxCell id="Pkc0Q9jrOcTM5dbPZ3zt-22" value="Conseguiu enviar" style="rhombus;whiteSpace=wrap;html=1;fontFamily=Times New Roman;fontSize=14;" vertex="1" parent="1">
          <mxGeometry x="800" y="630" width="140" height="80" as="geometry" />
        </mxCell>
        <mxCell id="Pkc0Q9jrOcTM5dbPZ3zt-25" style="edgeStyle=orthogonalEdgeStyle;rounded=0;orthogonalLoop=1;jettySize=auto;html=1;fontFamily=Times New Roman;fontSize=14;" edge="1" parent="1" source="Pkc0Q9jrOcTM5dbPZ3zt-23">
          <mxGeometry relative="1" as="geometry">
            <mxPoint x="165" y="460" as="targetPoint" />
            <Array as="points">
              <mxPoint x="30" y="540" />
              <mxPoint x="30" y="460" />
            </Array>
          </mxGeometry>
        </mxCell>
        <mxCell id="Pkc0Q9jrOcTM5dbPZ3zt-28" value="" style="edgeStyle=orthogonalEdgeStyle;rounded=0;orthogonalLoop=1;jettySize=auto;html=1;fontFamily=Times New Roman;fontSize=14;" edge="1" parent="1" source="Pkc0Q9jrOcTM5dbPZ3zt-23" target="Pkc0Q9jrOcTM5dbPZ3zt-27">
          <mxGeometry relative="1" as="geometry" />
        </mxCell>
        <mxCell id="Pkc0Q9jrOcTM5dbPZ3zt-23" value="Rede configurada" style="rhombus;whiteSpace=wrap;html=1;fontSize=14;fontFamily=Times New Roman;" vertex="1" parent="1">
          <mxGeometry x="100" y="500" width="130" height="80" as="geometry" />
        </mxCell>
        <mxCell id="Pkc0Q9jrOcTM5dbPZ3zt-26" value="Não" style="text;html=1;strokeColor=none;fillColor=none;align=center;verticalAlign=middle;whiteSpace=wrap;rounded=0;fontSize=14;fontFamily=Times New Roman;" vertex="1" parent="1">
          <mxGeometry x="40" y="510" width="60" height="30" as="geometry" />
        </mxCell>
        <mxCell id="Pkc0Q9jrOcTM5dbPZ3zt-29" style="edgeStyle=orthogonalEdgeStyle;rounded=0;orthogonalLoop=1;jettySize=auto;html=1;fontFamily=Times New Roman;fontSize=14;" edge="1" parent="1" source="Pkc0Q9jrOcTM5dbPZ3zt-27">
          <mxGeometry relative="1" as="geometry">
            <mxPoint x="400" y="240" as="targetPoint" />
            <Array as="points">
              <mxPoint x="165" y="790" />
              <mxPoint x="-20" y="790" />
              <mxPoint x="-20" y="240" />
            </Array>
          </mxGeometry>
        </mxCell>
        <mxCell id="Pkc0Q9jrOcTM5dbPZ3zt-27" value="Salva as credenciais e reseta o ESP32" style="whiteSpace=wrap;html=1;fontSize=14;fontFamily=Times New Roman;" vertex="1" parent="1">
          <mxGeometry x="105" y="670" width="120" height="60" as="geometry" />
        </mxCell>
        <mxCell id="Pkc0Q9jrOcTM5dbPZ3zt-36" style="edgeStyle=orthogonalEdgeStyle;rounded=0;orthogonalLoop=1;jettySize=auto;html=1;fontFamily=Times New Roman;fontSize=14;" edge="1" parent="1" source="Pkc0Q9jrOcTM5dbPZ3zt-35">
          <mxGeometry relative="1" as="geometry">
            <mxPoint x="870" y="460" as="targetPoint" />
            <Array as="points">
              <mxPoint x="690" y="850" />
              <mxPoint x="550" y="850" />
              <mxPoint x="550" y="460" />
            </Array>
          </mxGeometry>
        </mxCell>
        <mxCell id="Pkc0Q9jrOcTM5dbPZ3zt-35" value="Debug erro" style="rounded=0;whiteSpace=wrap;html=1;fontFamily=Times New Roman;fontSize=14;" vertex="1" parent="1">
          <mxGeometry x="630" y="730" width="120" height="60" as="geometry" />
        </mxCell>
        <mxCell id="Pkc0Q9jrOcTM5dbPZ3zt-37" value="O chuveiro está ligado" style="rhombus;whiteSpace=wrap;html=1;fontFamily=Times New Roman;fontSize=14;" vertex="1" parent="1">
          <mxGeometry x="980" y="720" width="170" height="80" as="geometry" />
        </mxCell>
        <mxCell id="Pkc0Q9jrOcTM5dbPZ3zt-39" value="Sim" style="text;html=1;strokeColor=none;fillColor=none;align=center;verticalAlign=middle;whiteSpace=wrap;rounded=0;fontSize=14;fontFamily=Times New Roman;" vertex="1" parent="1">
          <mxGeometry x="970" y="640" width="60" height="30" as="geometry" />
        </mxCell>
        <mxCell id="Pkc0Q9jrOcTM5dbPZ3zt-40" value="Não" style="text;html=1;strokeColor=none;fillColor=none;align=center;verticalAlign=middle;whiteSpace=wrap;rounded=0;fontSize=14;fontFamily=Times New Roman;" vertex="1" parent="1">
          <mxGeometry x="710" y="640" width="60" height="30" as="geometry" />
        </mxCell>
      </root>
    </mxGraphModel>
  </diagram>
</mxfile>
